<svg xmlns="http://www.w3.org/2000/svg" viewBox="0 0 512 512" role="img" aria-label="Merky">
  <rect width="512" height="512" rx="116" fill="#000000"/>
  <path d="M86 160c0-41 33-74 74-74h192c41 0 74 33 74 74v192c0 41-33 74-74 74H160c-41 0-74-33-74-74V160Z" fill="#07111f" stroke="#1d4ed8" stroke-width="18"/>
  <path d="M151 344V168h43l62 94 62-94h43v176h-48V251l-43 63h-28l-43-63v93h-48Z" fill="#f8fafc"/>
  <path d="M143 142h226" stroke="#60a5fa" stroke-width="24" stroke-linecap="round"/>
  <circle cx="382" cy="130" r="38" fill="#38bdf8"/>
  <path d="M176 374h160" stroke="#60a5fa" stroke-width="20" stroke-linecap="round"/>
</svg>
